<svg width="28" height="28" fill="none" xmlns="http://www.w3.org/2000/svg"><path d="m25.087 23.09-1.25-15.756a1.97 1.97 0 0 0-1.955-1.81h-2.47v-.112A5.418 5.418 0 0 0 14 0a5.418 5.418 0 0 0-5.412 5.412v.111h-2.47a1.969 1.969 0 0 0-1.954 1.809l-1.251 15.76a4.573 4.573 0 0 0 1.2 3.447A4.573 4.573 0 0 0 7.46 28h13.08a4.572 4.572 0 0 0 3.345-1.461 4.574 4.574 0 0 0 1.201-3.449ZM10.227 5.412A3.777 3.777 0 0 1 14 1.64a3.777 3.777 0 0 1 3.772 3.772v.111h-7.544v-.11Zm12.456 20.012a2.89 2.89 0 0 1-2.142.936H7.46a2.889 2.889 0 0 1-2.142-.936 2.888 2.888 0 0 1-.769-2.204l1.25-15.76a.322.322 0 0 1 .32-.297h2.47v2.02a.82.82 0 0 0 1.64 0v-2.02h7.544v2.02a.82.82 0 0 0 1.64 0v-2.02h2.47c.166 0 .307.13.32.298l1.25 15.757a2.89 2.89 0 0 1-.769 2.206Z" fill="#141517"/></svg>