<svg width="18" height="18" viewBox="0 0 18 18" fill="none" xmlns="http://www.w3.org/2000/svg">
<path d="M0.779213 8.22083H15.3398L11.8654 4.74623C11.5611 4.44204 11.5611 3.94857 11.8654 3.64442C12.1698 3.34004 12.6633 3.34004 12.9672 3.64442L17.7717 8.44902C18.0761 8.75322 18.0761 9.24673 17.7717 9.55084L12.9672 14.3557C12.8151 14.5079 12.6157 14.5839 12.4163 14.5839C12.217 14.5839 12.0176 14.5079 11.8654 14.3557C11.5611 14.0515 11.5611 13.558 11.8654 13.2539L15.3398 9.77912H0.779213C0.348927 9.77912 0 9.43024 0 8.99995C0 8.56967 0.348881 8.22083 0.779213 8.22083Z" fill="white"/>
</svg>
