<svg width="10" height="10" viewBox="0 0 10 10" fill="none" xmlns="http://www.w3.org/2000/svg">
<path d="M0.159839 2.54042L0.487403 2.21058C0.590493 2.10757 0.727648 2.05082 0.874234 2.05082C1.02074 2.05082 1.15806 2.10757 1.26115 2.21058L4.99776 5.94735L8.73869 2.20643C8.84162 2.10342 8.97893 2.04675 9.12544 2.04675C9.27195 2.04675 9.40934 2.10342 9.51235 2.20643L9.84 2.53424C10.0533 2.74741 10.0533 3.09465 9.84 3.30782L5.38598 7.77786C5.28305 7.88078 5.1459 7.95331 4.99809 7.95331H4.99638C4.8498 7.95331 4.71264 7.8807 4.60971 7.77786L0.159839 3.31993C0.0567484 3.21701 0.000163078 3.0757 0 2.9292C0 2.78261 0.0567484 2.64326 0.159839 2.54042Z" fill="#141517"/>
</svg>
