<svg width="22" height="22" viewBox="0 0 22 22" fill="none" xmlns="http://www.w3.org/2000/svg">
<path d="M3.75 7.29039V17.5047C3.75 17.9631 3.93212 18.4028 4.25629 18.727C4.58046 19.0511 5.02013 19.2333 5.47857 19.2333H18.5214C18.9799 19.2333 19.4195 19.0511 19.7437 18.727C20.0679 18.4028 20.25 17.9631 20.25 17.5047V7.29039C20.25 6.83195 20.0679 6.39228 19.7437 6.06811C19.4195 5.74394 18.9799 5.56182 18.5214 5.56182H16.7929V3.83325H15.0643V5.56182H8.93571V3.83325H7.20714V5.56182H5.47857C5.02013 5.56182 4.58046 5.74394 4.25629 6.06811C3.93212 6.39228 3.75 6.83195 3.75 7.29039ZM18.5214 17.5047H5.47857V9.01897H18.5214V17.5047Z" fill="#141517"/>
</svg>
