<svg width="19" height="18" viewBox="0 0 19 18" fill="none" xmlns="http://www.w3.org/2000/svg">
<g clip-path="url(#clip0)">
<path d="M17.7208 8.2208H3.16019L6.63456 4.7462C6.93894 4.44201 6.93894 3.94854 6.63456 3.64439C6.33019 3.34001 5.83672 3.34001 5.53279 3.64439L0.728283 8.44899C0.423906 8.75319 0.423906 9.2467 0.728283 9.55081L5.53279 14.3556C5.68494 14.5079 5.88433 14.5839 6.08368 14.5839C6.28303 14.5839 6.48242 14.5079 6.63456 14.3556C6.93894 14.0514 6.93894 13.558 6.63456 13.2539L3.16019 9.77909H17.7208C18.1511 9.77909 18.5 9.43021 18.5 8.99992C18.5 8.56963 18.1511 8.2208 17.7208 8.2208Z" fill="#6B6F77"/>
</g>
<defs>
<clipPath id="clip0">
<rect width="18" height="18" fill="white" transform="translate(0.5)"/>
</clipPath>
</defs>
</svg>
