<svg width="28" height="28" viewBox="0 0 28 28" fill="none" xmlns="http://www.w3.org/2000/svg">
<path d="M25.0872 23.09L23.8367 7.3337C23.7588 6.31859 22.9003 5.52338 21.8823 5.52338H19.4124V5.41237C19.4124 2.42796 16.9845 0 14.0001 0C11.0156 0 8.58769 2.42796 8.58769 5.41237V5.52338H6.11789C5.09977 5.52338 4.24123 6.31854 4.16358 7.33157L2.91277 23.0922C2.81597 24.3541 3.25374 25.6104 4.11376 26.5389C4.97377 27.4674 6.19292 28 7.45855 28H20.5415C21.8071 28 23.0263 27.4675 23.8863 26.5389C24.7464 25.6104 25.1841 24.3541 25.0872 23.09ZM10.2278 5.41237C10.2278 3.33233 11.9201 1.64008 14.0001 1.64008C16.08 1.64008 17.7723 3.33238 17.7723 5.41237V5.52338H10.2278V5.41237ZM22.6831 25.4245C22.1243 26.0277 21.3638 26.3599 20.5415 26.3599H7.45861C6.63633 26.3599 5.87584 26.0277 5.31705 25.4245C4.7583 24.8212 4.4852 24.0375 4.54798 23.2198L5.79868 7.4591C5.81137 7.29329 5.95159 7.16346 6.11789 7.16346H8.58769V9.18334C8.58769 9.63621 8.95486 10.0034 9.40772 10.0034C9.86059 10.0034 10.2278 9.63621 10.2278 9.18334V7.16346H17.7723V9.18334C17.7723 9.63621 18.1395 10.0034 18.5924 10.0034C19.0452 10.0034 19.4124 9.63621 19.4124 9.18334V7.16346H21.8823C22.0485 7.16346 22.1887 7.29334 22.2016 7.46129L23.4521 23.2176C23.515 24.0375 23.2418 24.8212 22.6831 25.4245Z" fill="#141517"/>
</svg>
